<?xml version="1.0" encoding="UTF-8" standalone="no"?>
<svg
   xmlns:dc="http://purl.org/dc/elements/1.1/"
   xmlns:cc="http://creativecommons.org/ns#"
   xmlns:rdf="http://www.w3.org/1999/02/22-rdf-syntax-ns#"
   xmlns:svg="http://www.w3.org/2000/svg"
   xmlns="http://www.w3.org/2000/svg"
   xmlns:xlink="http://www.w3.org/1999/xlink"
   version="1.1"
   id="svg10"
   width="4096"
   height="512"
   viewBox="0 0 4096 512">
  <metadata
     id="metadata16">
    <rdf:RDF>
      <cc:Work
         rdf:about="">
        <dc:format>image/svg+xml</dc:format>
        <dc:type
           rdf:resource="http://purl.org/dc/dcmitype/StillImage" />
        <dc:title></dc:title>
      </cc:Work>
    </rdf:RDF>
  </metadata>
  <defs
     id="defs14" />

    <path
       style="fill:none;stroke:#000000;stroke-width:1.04167px;stroke-linecap:butt;stroke-linejoin:miter;stroke-opacity:1"
       d="m 0.70050685,0.14135565 0,39.69054035 42.23480615,1.017707 -18.827564,30.531185 -7.632797,89.049292 8.650504,6.10624 2.544264,46.81448 8.141649,27.47806 -3.56197,59.02696 13.739032,-7.12393 -5.08853,106.85913 8.141649,12.21248 h 13.23018 l -0.508853,32.5666 4.070824,16.2833 12.721328,0.50885 3.053118,13.73904 14.756739,-0.50886 8.650494,8.14165 22.38955,-3.56197 50.37645,1.01771 6.61509,-7.12395 34.09316,-0.50885 17.80985,9.6682 14.24789,-6.61508 h 29.00462 l 26.46037,-13.23018 17.301,-12.72133 20.86298,12.21248 13.23017,-10.68592 17.80987,-11.19477 v -5.08853 l 19.84527,-2.03541 21.88068,7.63279 13.23018,-5.08853 9.6682,-5.59738 22.38955,-24.9338 -1.01771,-9.15936 6.10624,-10.17706 12.72132,-1.0177 4.57968,3.56197 v 10.68592 l 23.91609,7.63279 9.15936,-6.6151 7.6328,0.50886 13.73903,15.77445 48.8499,-3.05312 11.70361,-8.6505 1.01771,-10.17706 h 32.05774 l 2.03542,9.15935 10.17706,7.6328 1.01771,12.21247 29.51348,10.17707 1.0177,7.12393 51.39416,3.56197 12.72133,-14.75674 14.75674,-8.6505 24.9338,-5.59738 6.61509,-5.59739 2.54426,-10.17705 25.44266,2.54426 16.79215,-7.63279 7.6328,-6.61509 1.0177,-11.70363 8.65051,-14.24789 9.15935,-22.38953 h 6.61509 l 8.65051,7.12394 21.88067,-0.50884 5.08854,-13.23019 9.6682,-3.56197 8.14165,6.61509 0.50885,13.73904 4.57968,4.07082 3.56198,9.66821 17.301,-0.50886 2.03542,-14.75674 9.66821,-1.01771 14.24788,-12.21246 v -12.21248 l 4.57968,-14.75674 14.24789,-1.52656 10.68591,-6.61509 -0.50885,-19.33642 12.21244,-6.10624 16.7922,-0.50884 25.9515,8.6505 21.3718,-2.03542 2.0355,21.37184 7.6328,7.63279 -5.0886,12.72133 3.5621,12.72133 -1.0178,18.82756 17.8098,-4.57968 11.1948,-17.301 -1.5265,-15.26559 -5.5974,-7.12395 4.5797,-24.9338 9.6682,-0.50886 3.562,40.1994 13.739,11.70362 -5.0885,11.70362 2.5443,23.91609 2.0354,2.03542 1.5265,9.66821 20.863,-0.50886 2.5442,12.72133 16.7922,2.03541 11.1947,-4.07082 19.8453,-23.40724 14.2479,10.68591 16.2833,-5.08852 v -8.14166 l 9.1593,-6.10624 11.7037,-1.52655 6.1062,9.15935 h 9.6683 l 20.354,12.21247 5.5974,10.17706 3.562,0.50886 v 15.77445 l 5.5974,5.08853 h 15.2656 l 7.1239,3.56197 10.1771,-0.50886 3.5619,4.57968 15.7745,-2.03541 14.2479,-9.15935 38.6729,-5.59739 0.5088,-10.17706 11.1948,-16.2833 13.2301,-8.14165 5.5974,-8.14164 -1.0177,-7.12395 5.5974,-8.6505 6.6151,-0.50886 12.7213,12.21247 29.5135,1.01771 5.0885,-6.61508 14.7568,-2.03542 9.6681,-8.14165 10.686,18.82757 12.2125,4.07082 6.1062,-2.03542 18.3187,14.24789 h 18.3187 l 17.8099,-7.63279 2.5443,-7.12395 8.6504,-6.61508 22.8984,-1.52657 17.8099,-11.19477 17.301,-4.57967 6.1062,-5.59738 20.863,-2.03542 -2.5442,10.17707 -6.1063,3.56197 -18.8276,28.49577 11.7037,12.21248 -2.0355,5.08853 -19.8453,18.31871 -0.5088,18.31871 4.0708,17.30101 9.1594,4.57967 v 7.12394 l 10.1771,5.59739 17.301,-4.07083 7.6327,5.59739 13.2302,-6.10624 10.1771,-4.07082 1.0177,8.14164 10.1771,4.07083 20.8629,2.03541 4.0708,-5.59738 11.7037,-6.10624 7.124,-39.69055 6.1062,12.21248 10.1771,-9.15935 2.0354,-15.2656 -4.5797,-10.68591 3.0531,-31.54889 -15.7744,-22.38954 12.7213,4.57968 6.615,6.61509 24.9339,3.05312 2.0354,-21.88068 h 18.3187 l 0.5089,6.61508 33.0754,10.17706 3.562,9.15936 13.7389,8.65051 18.3188,-2.54427 0.5088,10.68592 10.686,6.61509 12.2125,0.50885 4.5797,10.17706 -0.5089,10.68591 4.5796,4.57968 5.5974,19.33642 -2.0354,6.61509 8.6505,5.08853 12.7214,-8.14164 0.5088,-13.73905 5.0886,0.50886 9.6682,6.61509 8.1415,-3.05311 14.248,1.0177 18.8276,-7.12394 1.5265,-13.23018 3.562,-6.10624 10.6858,-3.05312 8.6506,-17.301 7.1239,-6.10624 5.5974,4.07082 v 10.17706 l 12.7214,6.10624 7.1239,8.6505 0.5089,15.77445 12.2124,8.14165 9.6682,1.0177 7.6328,6.6151 7.6328,1.01771 6.6151,6.10623 37.6551,2.54427 6.1063,4.07082 3.562,9.66821 46.8145,-0.50886 21.3717,10.17707 -5.5974,4.07082 11.7037,8.6505 59.5358,1.52656 17.3011,-13.23018 21.3717,-2.03541 15.2657,-17.80986 1.0177,-10.17706 12.7213,-8.14165 13.739,7.6328 16.2833,-7.12394 16.2833,-3.05313 -0.5088,-10.17706 13.2301,-3.56197 9.6682,-10.17706 2.0354,12.21248 42.2348,-0.50886 22.3896,-23.40724 -0.5088,-7.6328 12.2124,-1.52656 6.6151,-5.59738 13.739,7.12394 16.2834,3.56197 11.1946,-8.6505 6.1063,-1.01771 -0.5089,-8.6505 16.7922,2.54427 3.562,8.14165 16.2833,9.66821 h 22.8984 19.3364 l 14.7567,-13.73903 -0.5089,-10.17707 8.6506,-6.10624 4.5797,-9.15935 10.177,-14.24789 h 11.1948 l 6.1063,4.07083 h 4.5797 l 21.3717,6.61509 17.3011,-1.01771 7.6328,-6.10624 -0.5089,-8.14164 11.1947,-5.59739 4.5797,-14.75674 9.6682,-13.73903 16.2834,-7.63279 2.5442,5.08852 18.3187,5.59738 7.6328,11.70363 11.1948,3.05311 14.2479,-5.08853 15.2655,-3.56197 11.1948,-15.26559 h 11.1948 l -3.562,11.70363 8.1417,6.10623 13.739,14.24789 5.0885,9.66821 1.0177,5.59737 11.7037,9.15937 18.8276,1.52655 5.5974,4.07082 1.0177,19.33642 27.478,15.2656 0.5088,12.21247 9.6683,10.17707 14.7566,2.54426 h 26.4605 l 6.1062,5.59738 15.2655,0.50886 74.8015,-25.44266 3.0531,-15.77445 14.7568,-12.21247 6.615,-22.38954 15.7745,-16.28329 27.4781,-17.80986 2.5442,11.19477 19.3364,5.59738 v 8.6505 l 20.3542,8.14166 0.5088,14.75674 5.5974,10.6859 2.0354,10.68592 11.1947,5.59739 8.1417,-22.89839 3.0531,0.50885 4.5797,9.66821 0.5089,16.79215 16.2833,7.12395 24.9338,-10.17707 6.1062,-15.77444 6.1063,-6.6151 -0.5089,-7.63279 h 10.1771 l 14.2478,-5.59738 h 13.7391 l 2.5442,13.23017 -2.5442,11.19477 14.7567,8.6505 1.0177,6.6151 8.1417,4.07082 h 17.3009 l -2.0354,9.66821 12.7214,6.10624 5.5974,4.57968 2.5443,7.12393 v 6.6151 l 32.0577,2.03541 11.7036,-5.08853 2.0354,-6.10624 6.1063,-3.05311 11.7035,1.52655 v 2.54427 l 14.7568,8.6505 7.1239,-5.59738 22.8985,-6.10624 7.1238,-11.19476 v -6.10624 l 12.2125,-3.56197 11.7037,-4.57968 8.1417,7.12394 12.2123,2.54427 7.124,6.61508 2.5443,16.79216 9.6682,10.17706 -0.5088,9.15936 15.2656,2.0354 13.2302,6.10624 h 10.6858 l 9.1594,16.79216 h 24.425 l 18.8275,-3.05313 9.6682,-8.14164 10.686,-1.01771 10.177,8.6505 3.0532,7.12395 29.0046,0.50885 9.1593,9.15936 19.8452,1.0177 49.8676,8.14165 13.2303,-7.63279 7.1239,-4.07083 2.0354,-6.10623 8.6506,-1.52657 10.6858,-6.10624 3.562,-10.17706 6.6151,-1.0177 3.5619,5.08853 4.5797,4.07083 8.1417,8.6505 36.6374,-1.52656 10.1771,4.07082 13.739,-10.17706 7.6328,-5.59738 7.6328,-14.24789 9.1593,-0.50885 5.5974,7.63279 12.2125,0.50886 20.3541,-4.07083 5.0885,-11.70362 12.7214,-6.61509 -1.5266,-8.65051 3.0532,-34.09315 6.1062,-10.17706 1.5266,-15.26559 -5.0886,-11.19477 2.0354,-58.00925 6.6152,1.52656 3.5619,-22.38954 -1.5265,-37.65513 -5.5974,-14.75674 1.0177,-23.91609 8.1416,-24.9338 -4.0708,-75.310261 6.1063,-13.739034 -9.6683,-20.862975 -11.1948,-12.721327 29.5135,0.508853 0.2415,-41.21710035 V 512.14136 H 0.70050685 Z"
       id="path24" />
    <image
       xlink:href="map01.png"
       y="0"
       x="0"
       width="4096"
       height="512"
       preserveAspectRatio="none"
       id="image72" />
</svg>
